<svg xmlns="http://www.w3.org/2000/svg" width="53.6" height="54.304" viewBox="0 0 53.6 54.304">
  <g id="Group_47" data-name="Group 47" transform="translate(-1033.4 -4133)" opacity="0.8">
    <path id="Path_5" data-name="Path 5" d="M57.212,36.6a1.2,1.2,0,0,0,0,2.4A1.4,1.4,0,0,1,58.6,40.388v1.894H45.027a1.2,1.2,0,0,0-1.2,1.2v9.659h-8.46V49.858a1.2,1.2,0,0,0-1.2-1.2,1.161,1.161,0,0,0-1.2,1.2v3.283H23.815V43.481a1.161,1.161,0,0,0-1.2-1.2H9.736V40.388A1.4,1.4,0,0,1,11.125,39H21.984a1.2,1.2,0,1,0,0-2.4H11.125A3.732,3.732,0,0,0,7.4,40.325V68.671A3.732,3.732,0,0,0,11.125,72.4h46.15A3.732,3.732,0,0,0,61,68.671V40.325A3.786,3.786,0,0,0,57.212,36.6ZM46.227,64.568H58.538V44.681H46.227Zm-10.859,0h8.523V55.54H35.368Zm-11.553,0h9.154V55.54H23.815Zm-14.079,0h11.68V44.681H9.736Zm0,4.167v-1.7H32.969v3.094H11.125A1.445,1.445,0,0,1,9.736,68.735ZM57.212,70.06H35.368V66.967H58.6v1.7A1.361,1.361,0,0,1,57.212,70.06Z" transform="translate(1026 4114.908)" fill="#fff" fill-rule="evenodd"/>
    <path id="Path_6" data-name="Path 6" d="M36.345,35.388a7.475,7.475,0,0,0,10.417.189l6.566-4.23h0l11.048-7.2a1.233,1.233,0,0,0,.505-1.326,1.156,1.156,0,0,0-1.136-.884l-7.008-.189,1.2-6.629a1.165,1.165,0,0,0-.316-1.01,1.205,1.205,0,0,0-1.01-.379l-6.755.694L48.34,8.178a1.141,1.141,0,0,0-1.01-.884,1.252,1.252,0,0,0-1.2.568L36.218,24.972a7.259,7.259,0,0,0-2.02,5.114A7.393,7.393,0,0,0,36.345,35.388Zm4.8-14.2c.316.568.758,1.2,1.2,1.894l-2.525,3.535-1.136-1.2Zm5.114,11.806L45.12,31.853l3.535-2.588a15.55,15.55,0,0,0,1.7,1.073Zm-2.9-2.841-1.831-1.831,2.336-3.283a27.514,27.514,0,0,0,2.715,2.715Zm-5.3,3.535a5.174,5.174,0,0,1-1.515-3.6,4.815,4.815,0,0,1,.758-2.652L44.3,34.441A5.081,5.081,0,0,1,38.049,33.684ZM59.83,24.277,52.7,28.886a19.39,19.39,0,0,1-1.957-1.073l4.987-3.6ZM49.666,16.954l5.619-.631-1.073,5.934L48.655,26.3a22.993,22.993,0,0,1-3.283-3.283ZM46.7,11.587l1.01,3.977-3.851,5.429a22.1,22.1,0,0,1-1.326-2.21Z" transform="translate(1016.122 4125.715)" fill="#fff" fill-rule="evenodd"/>
  </g>
</svg>
