<svg xmlns="http://www.w3.org/2000/svg" width="52.597" height="52.041" viewBox="0 0 52.597 52.041">
  <g id="Group_41" data-name="Group 41" transform="translate(-65.862 -67.871)" opacity="0.8">
    <path id="Path_8" data-name="Path 8" d="M118.062,68.129a1.106,1.106,0,0,0-.906-.24,140.111,140.111,0,0,1-49.99,0,1.106,1.106,0,0,0-1.3,1.089v30.97a1.107,1.107,0,0,0,1.3,1.089,140.112,140.112,0,0,1,49.99,0,1.106,1.106,0,0,0,1.3-1.089V68.978A1.106,1.106,0,0,0,118.062,68.129Zm-1.816,30.5a142.27,142.27,0,0,0-48.171,0V70.3a142.252,142.252,0,0,0,48.171,0Z" fill="#f4f4f4"/>
    <path id="Path_9" data-name="Path 9" d="M120.7,329.014h-3.9a4.882,4.882,0,0,0-4.875-4.79H106.9a4.882,4.882,0,0,0-4.875,4.79H99.25a4.882,4.882,0,0,0-4.875-4.79h-5.02a4.882,4.882,0,0,0-4.875,4.79h-3.9a4.883,4.883,0,0,0-4.878,4.878v5.81a1.107,1.107,0,0,0,1.107,1.107H89.371a1.107,1.107,0,0,0,1.106-1.107v-3.684h2.775V339.7a1.107,1.107,0,0,0,1.106,1.107h12.562a1.107,1.107,0,0,0,1.106-1.107v-3.684H110.8V339.7a1.107,1.107,0,0,0,1.107,1.107h12.562a1.107,1.107,0,0,0,1.106-1.107v-5.81a4.883,4.883,0,0,0-4.878-4.878Zm-32.435,9.581H77.916v-4.7a2.668,2.668,0,0,1,2.665-2.665H85.6a2.668,2.668,0,0,1,2.665,2.665Zm4.99-4.79H90.475a4.885,4.885,0,0,0-3.785-4.666V329.1a2.668,2.668,0,0,1,2.665-2.664h5.02a2.668,2.668,0,0,1,2.665,2.665v.037a4.885,4.885,0,0,0-3.785,4.666Zm12.56,4.79H95.465v-4.7a2.668,2.668,0,0,1,2.665-2.665h5.02a2.668,2.668,0,0,1,2.665,2.665Zm4.99-4.79h-2.779a4.885,4.885,0,0,0-3.785-4.666V329.1a2.668,2.668,0,0,1,2.665-2.665h5.02a2.668,2.668,0,0,1,2.665,2.665v.037A4.885,4.885,0,0,0,110.8,333.8Zm12.56,4.79H113.015v-4.7a2.668,2.668,0,0,1,2.665-2.665h5.02a2.668,2.668,0,0,1,2.665,2.665Z" transform="translate(-8.479 -220.895)" fill="#f4f4f4"/>
  </g>
</svg>
