<svg xmlns="http://www.w3.org/2000/svg" width="54" height="54" viewBox="0 0 54 54">
  <path id="Union_2" data-name="Union 2" d="M1.174,54A1.174,1.174,0,0,1,0,52.826V22.982a1.174,1.174,0,0,1,1.174-1.174H18.365V6.617a6.186,6.186,0,0,1,2.586-5.025L22.874.219a1.174,1.174,0,1,1,1.364,1.91L22.316,3.5a3.836,3.836,0,0,0-1.6,3.115V8.608H32.139V6.42a6.234,6.234,0,0,1,2.248-4.8L36.005.272a1.174,1.174,0,0,1,1.5,1.8L35.89,3.424a3.889,3.889,0,0,0-1.4,3V21.809H52.826A1.174,1.174,0,0,1,54,22.982V52.826A1.174,1.174,0,0,1,52.826,54Zm1.174-2.348h49.3V45.266A4.851,4.851,0,0,0,47,47.036a7.2,7.2,0,0,1-10.114,1.179L36.8,48.14l-2.1-2.019a4.864,4.864,0,0,0-6.775.833,7.216,7.216,0,0,1-10.113,1.186l-.086-.075-2.1-2.02a4.85,4.85,0,0,0-6.774.828,7.2,7.2,0,0,1-6.5,2.685Zm33.845-7.341.086.074,2.1,2.02a4.85,4.85,0,0,0,6.774-.828,7.2,7.2,0,0,1,6.5-2.685V37.805A4.851,4.851,0,0,0,47,39.575a7.153,7.153,0,0,1-4.812,2.685,7.33,7.33,0,0,1-.847.05,7.145,7.145,0,0,1-4.454-1.556L36.8,40.68l-2.1-2.019a4.864,4.864,0,0,0-6.775.833A7.214,7.214,0,0,1,17.808,40.68l-.086-.075-2.1-2.019a4.851,4.851,0,0,0-6.774.827,7.2,7.2,0,0,1-6.5,2.685v5.088A4.848,4.848,0,0,0,7,45.416a7.208,7.208,0,0,1,10.114-1.178l.085.073,2.1,2.019a4.864,4.864,0,0,0,6.775-.833,7.216,7.216,0,0,1,10.113-1.186Zm0-7.461.086.074,2.1,2.02a4.851,4.851,0,0,0,6.774-.828,7.2,7.2,0,0,1,6.5-2.685V32.765H2.348v6.96A4.847,4.847,0,0,0,7,37.955a7.2,7.2,0,0,1,10.114-1.179l.085.074,2.1,2.018a4.865,4.865,0,0,0,6.775-.833,7.215,7.215,0,0,1,10.113-1.186Zm-1.705-6.434H51.652v-6.26H34.487Zm-13.774,0H32.139V27.026H20.713Zm-18.365,0H18.365v-6.26H2.348Zm18.365-5.739H32.139V18.991H20.713Zm0-8.035H32.139V10.957H20.713Z" fill="#fff" opacity="0.8"/>
</svg>
