<svg xmlns="http://www.w3.org/2000/svg" width="55.709" height="47.176" viewBox="0 0 55.709 47.176">
  <g id="Group_44" data-name="Group 44" transform="translate(-0.985 -5.8)" opacity="0.8">
    <path id="Path_21" data-name="Path 21" d="M50.263,24.6a1,1,0,0,0,.522-.783v-.174L50.611,15.2a.936.936,0,0,0-.87-.87H47.826L46,6.5a.848.848,0,0,0-.87-.7H12.574a.848.848,0,0,0-.87.7L9.876,14.33H8.048a.872.872,0,0,0-.87.87l-.087,8.617a.79.79,0,0,0,.261.609c.087.087.087.087.174.087L1,51.931a.872.872,0,0,0,.87,1.044H55.833a.88.88,0,0,0,.783-1.219ZM8.832,20.423h3.22v2.611H8.832ZM19.1,23.034V20.423h3.569v2.611Zm3.569-6.963v2.524H19.1V16.071Zm5.309,0v2.524H24.412V16.071Zm10.619,0v2.524H35.031V16.071Zm-5.309,0v2.524H29.721V16.071Zm-8.878,4.352H27.98v2.611H24.412Zm5.309,0H33.29v2.611H29.721Zm5.4,2.611V20.423h3.569v2.611Zm5.309,0V20.423H44v2.611Zm0-4.352V16.158H44v2.524ZM29.721,14.33V12.154h12.36l.435,2.176Zm12.012-3.917H15.969l.522-2.785H41.21ZM15.621,12.154H27.98V14.33H15.186Zm1.741,3.917v2.524H13.793V16.071Zm0,4.352v2.611H13.793V20.423Zm-4.091,4.352H27.98V40.7H10.224ZM9.876,42.444H47.738l1.654,8.878H8.222ZM29.721,40.7V24.775h14.71L47.477,40.7ZM45.737,23.034V20.423h3.22v2.611Zm3.133-4.352H45.65V16.158h3.22ZM46,14.33H44.257l-1.306-6.7h1.48Zm-32.727-6.7h1.48l-1.306,6.7H11.7Zm-2.7,8.443h1.48v2.524H8.832V16.071Zm-1.393,8.7h2.263L6.482,51.322H3ZM51.22,51.322,46.172,24.775h2.263L54.7,51.322Z" fill="#fff"/>
  </g>
</svg>
