<svg xmlns="http://www.w3.org/2000/svg" width="53.812" height="58.11" viewBox="0 0 53.812 58.11">
  <path id="Path_7" data-name="Path 7" d="M55.257,7.027h-3.7v-3.1a.908.908,0,0,0-.908-.908H46.959V.908A.908.908,0,0,0,46.051,0H41.484a.908.908,0,0,0-.908.908V12.756h-2a7.118,7.118,0,0,0-.908-.826c-2.6-1.816-9.179-3.977-11.712-1.734a18.058,18.058,0,0,0-2.37,2.56H17.942V.908A.908.908,0,0,0,17.034,0H12.467a.908.908,0,0,0-.908.908V3.051H7.873a.908.908,0,0,0-.908.908V7.027H3.288a.908.908,0,0,0-.908.908V23.37a.908.908,0,0,0,.908.908h3.7v3.087a.908.908,0,0,0,.908.908h3.713v2.17a.908.908,0,0,0,.908.908h4.594a.908.908,0,0,0,.908-.908V18.494h3.8a4.54,4.54,0,0,0,1.716,2.388c1.589,1.217,3.06,1.68,4.349,1.38a3.3,3.3,0,0,0,1.816-1.153h4.176l1.743,1.9c.744,4.54,1.507,10.813,1.888,14.118-2.3-1.371-5.529-1.48-9.515-.281a13.083,13.083,0,0,0-8.425-3.014c-7.009,0-12.711,5.329-12.711,11.885S12.567,57.6,19.576,57.6a13.446,13.446,0,0,0,5.593-1.217,35.082,35.082,0,0,0,9.6,1.725,10.2,10.2,0,0,0,3.632-.572c5.556-2.152,16.116-13.21,16.116-16.088,0-3.732-2.533-9.079-4.939-13.256h1.1a.908.908,0,0,0,.908-.908V24.2h3.7a.908.908,0,0,0,.908-.908V7.853a.908.908,0,0,0-.935-.826ZM42.365,1.761H45.2V29.48H42.365V1.761ZM40.6,16.733H27.892a2.279,2.279,0,0,1,0-2.215H40.6ZM4.169,22.462V8.789H6.992V22.462Zm4.585,3.968V4.812h2.833V26.429ZM16.18,29.48H13.348V1.761H16.18Zm1.761-14.953h4.54a6.827,6.827,0,0,0-.726,2.215H17.942Zm9.515,6.065A3.84,3.84,0,0,1,24.6,19.52a2.642,2.642,0,0,1-1.171-2.043c-.064-1.943,1.934-4.422,3.632-5.965,1.307-1.144,5.738-.263,8.534,1.244H27.457a.908.908,0,0,0-.663.3,4.1,4.1,0,0,0-.109,5.1.908.908,0,0,0,.154.163l1.344,1.952A1.58,1.58,0,0,1,27.457,20.592ZM52.733,41.474c-.145,1.643-9.333,12.293-14.972,14.454-2.315.908-6.728.436-12.4-1.3a.908.908,0,0,0-.645.054,11.467,11.467,0,0,1-5.13,1.189c-6.038,0-10.949-4.54-10.949-10.123S13.566,35.59,19.6,35.59a11.331,11.331,0,0,1,7.626,2.887.908.908,0,0,0,.863.191c3.259-1.053,7.617-1.7,9.9,1.153a.908.908,0,0,0,1.562-.645c0-.1-1.135-10.332-2.2-16.733a.908.908,0,0,0-.227-.454l-2.2-2.324a.908.908,0,0,0-.645-.281h-4.54l-.617-.908H40.6V30.361a.908.908,0,0,0,.908.908h4.594a.908.908,0,0,0,.908-.908v-2.17h.572c3.359,5.793,5.166,10.377,5.166,13.246ZM49.791,26.429H46.959V4.812h2.833Zm4.54-3.968H51.553V8.789h2.824Z" transform="translate(-2.38)" fill="#fff" opacity="0.8"/>
</svg>
