<svg xmlns="http://www.w3.org/2000/svg" width="49.687" height="48" viewBox="0 0 49.687 48">
  <path id="Union_3" data-name="Union 3" d="M.845,48A.842.842,0,0,1,0,47.158V43.79a.842.842,0,0,1,.842-.842H17.507l.135-.842h-.8A.842.842,0,0,1,16,41.263V14.316H14.319V36.211a.843.843,0,0,1-.842.842H5.055a.843.843,0,0,1-.842-.842V14.316H2.529V41.263H.845V13.477a.842.842,0,0,1,.842-.842H16V10.109c0-.011.007-.021.007-.032a.785.785,0,0,1,.052-.258A.639.639,0,0,1,16.1,9.73a.81.81,0,0,1,.111-.168.745.745,0,0,1,.07-.076c.016-.014.027-.033.042-.045l7.579-5.895a.842.842,0,0,1,1.034,0l5.66,4.4a5.979,5.979,0,1,1,2.244,6.989v6.955h7.579a.842.842,0,0,1,.842.842V26.1h3.369V22.737a.842.842,0,0,1,.842-.842H48V16.842h1.684V41.263H48V27.79H46.319V41.263H44.635V37.895H41.266v3.368H39.582V27.79H32.845V41.263a.842.842,0,0,1-.842.843h-.8l.135.842h17.5a.842.842,0,0,1,.842.842v3.368a.842.842,0,0,1-.842.842Zm31.034-1.684H48V44.632H31.609Zm-6.613,0h4.907l-3.1-19.368H25.266Zm-6.591,0h4.907V26.948H21.774Zm-16.987,0H16.969l.27-1.684H1.687Zm29.249-5.895h.225V32.842H29.723Zm-13.249,0h.225l1.213-7.579H17.687Zm23.579-4.21h3.369V34.527H41.266ZM5.9,35.369h6.736V33.684H5.9Zm35.368-2.527h3.369V31.158H41.266ZM5.9,32h6.736V14.316H5.9Zm23.556-.842h1.707V29.474H29.184Zm-11.767,0h1.707l.27-1.684H17.687Zm23.579-1.684h3.369V27.79H41.266Zm-16-14.316h2.526a.842.842,0,0,1,.843.842V26.039l.28,1.751h2.246V10.947H25.266ZM17.687,27.79h2.246l.28-1.751V16a.842.842,0,0,1,.843-.842h2.526V10.947H17.687ZM46.319,26.1H48V23.579H46.319Zm-13.474,0h6.737V23.579H32.845ZM21.9,25.263H26.95V16.842H21.9ZM36.214,5.7a4.279,4.279,0,0,0-4.175,3.358l.481.374c.016.014.027.031.042.045a.931.931,0,0,1,.182.244.682.682,0,0,1,.042.089.793.793,0,0,1,.052.258c0,.011.007.021.007.032v2.549A4.295,4.295,0,1,0,36.222,5.7ZM19.3,9.263H29.548L24.424,5.277ZM35.371,20.211V17.789h1.685v2.421Zm5.5-4,1.191-1.191,1.712,1.712L42.584,17.92Zm2.921-5.261V9.263h2.526v1.684ZM.845,8.421A.842.842,0,0,1,0,7.579a4.061,4.061,0,0,1,4.21-4.211c.149,0,.281.024.421.034C5.285,2.03,7.044,0,11.792,0c7.495,0,7.579,5,7.579,5.053a.842.842,0,0,1-.842.842H8.106A5.088,5.088,0,0,1,8.45,7.586a.842.842,0,0,1-.842.835Zm.972-1.684H6.642A2.274,2.274,0,0,0,4.213,5.053q-.105-.01-.209-.01A2.263,2.263,0,0,0,1.817,6.737ZM6.3,3.849a3.574,3.574,0,0,1,.567.362H17.475c-.432-1-1.736-2.527-5.683-2.527C8.325,1.684,6.889,2.84,6.3,3.849Zm34.724.3L42.732,2.44,43.924,3.63,42.212,5.342Zm-12.579-.67L29.633,2.29,31.345,4,30.154,5.192Zm6.929-1.06V0h1.685V2.421ZM1.687,1.684V0H3.371V1.684Z" transform="translate(0)" fill="#fff"/>
</svg>
