<svg xmlns="http://www.w3.org/2000/svg" width="53.641" height="54" viewBox="0 0 53.641 54">
  <g id="Group_43" data-name="Group 43" transform="translate(-2.16 -2)" opacity="0.8">
    <path id="Path_17" data-name="Path 17" d="M16.754,50.2a8.321,8.321,0,1,0-8.316-8.327A8.336,8.336,0,0,0,16.754,50.2Zm0-14.392a6.071,6.071,0,1,1-6.066,6.065A6.077,6.077,0,0,1,16.754,35.806Z" transform="translate(0.785 3.944)" fill="#fff"/>
    <path id="Path_18" data-name="Path 18" d="M54.534,48.628,46.05,40.143a1.148,1.148,0,0,0-1.335-.166l-5.1-5.1C35.3,21.087,37.6,15.027,30.434,7.861,23.055.482,12.318.236,6.363,6.19l0,0h0v0c-6.5,6.5-5.074,17.315,1.648,24.055.007.007.008.016.015.023s.016.009.024.016c6.072,6.056,9.555,4.621,26.661,9.562l5.065,5.065a1.11,1.11,0,0,0,.169,1.337l8.484,8.485a4.32,4.32,0,0,0,6.109-6.109ZM37.352,35.142l-2.43,2.43c-2.666-.764-5.466-1.5-8.442-2.228a14.034,14.034,0,0,0,5.62-3.408h0l0,0A13.968,13.968,0,0,0,35.31,26.9C35.872,29.665,36.514,32.4,37.352,35.142ZM16.569,33.021,19.23,30.36l3.459,3.459A15.3,15.3,0,0,1,16.569,33.021Zm-6.124-3.581,3.932-3.932,3.262,3.262-3.313,3.313A18.163,18.163,0,0,1,10.445,29.439ZM6.208,23.972l3.317-3.317,3.262,3.262L8.853,27.85A18.182,18.182,0,0,1,6.208,23.972ZM4.474,15.6l3.461,3.46L5.27,21.728A14.829,14.829,0,0,1,4.474,15.6ZM7.2,8.625l5.587,5.587L9.525,17.473,4.959,12.907A11.946,11.946,0,0,1,7.2,8.625Zm5.859-3.847,4.58,4.581L14.378,12.62,8.786,7.029A11.936,11.936,0,0,1,13.059,4.778ZM28.014,8.69l-3.931,3.931L20.821,9.359l3.316-3.316A18.219,18.219,0,0,1,28.014,8.69Zm4.232,5.473-3.311,3.311-3.262-3.262,3.93-3.93A18.178,18.178,0,0,1,32.246,14.162Zm-6.862,19.17-4.563-4.563,3.262-3.262,5.585,5.585A11.956,11.956,0,0,1,25.384,33.332ZM19.23,20.655l3.262,3.262L19.23,27.178l-3.262-3.262Zm-4.853,1.671-3.262-3.262L14.378,15.8l3.262,3.262Zm6.443-3.262L24.083,15.8l3.262,3.262-3.262,3.262ZM31.259,29.5l-5.585-5.585,3.262-3.262L33.5,25.22A11.934,11.934,0,0,1,31.259,29.5Zm2.728-6.977-3.461-3.461,2.66-2.66A15.533,15.533,0,0,1,33.987,22.525ZM22.492,14.211,19.23,17.473l-3.262-3.262,3.262-3.262Zm-.6-9.108L19.23,7.768,15.757,4.295A15.061,15.061,0,0,1,21.894,5.1ZM38.616,37.06l4.463,4.463L41.32,43.282l-4.463-4.463ZM52.943,53.146a2.073,2.073,0,0,1-2.927,0l-7.689-7.689,2.927-2.927,7.689,7.689A2.069,2.069,0,0,1,52.943,53.146Z" transform="translate(0)" fill="#fff"/>
  </g>
</svg>
